<mxfile host="app.diagrams.net" agent="Mozilla/5.0 (Windows NT 10.0; Win64; x64) AppleWebKit/537.36 (KHTML, like Gecko) Chrome/137.0.0.0 Safari/537.36" version="27.1.4">
  <diagram id="C5RBs43oDa-KdzZeNtuy" name="Page-1">
    <mxGraphModel dx="1388" dy="648" grid="1" gridSize="10" guides="1" tooltips="1" connect="1" arrows="1" fold="1" page="1" pageScale="1" pageWidth="827" pageHeight="1169" math="0" shadow="0">
      <root>
        <mxCell id="WIyWlLk6GJQsqaUBKTNV-0" />
        <mxCell id="WIyWlLk6GJQsqaUBKTNV-1" parent="WIyWlLk6GJQsqaUBKTNV-0" />
        <mxCell id="zGWfX58aozJK1iI6-qko-0" value="User" style="shape=umlActor;verticalLabelPosition=bottom;verticalAlign=top;html=1;outlineConnect=0;" vertex="1" parent="WIyWlLk6GJQsqaUBKTNV-1">
          <mxGeometry x="140" y="240" width="30" height="60" as="geometry" />
        </mxCell>
        <mxCell id="zGWfX58aozJK1iI6-qko-9" value="&lt;p style=&quot;margin:0px;margin-top:4px;text-align:center;&quot;&gt;&lt;i&gt;&amp;lt;&amp;lt;&lt;/i&gt;&lt;u style=&quot;color: rgb(45, 55, 72); font-size: 10px;&quot;&gt;Entity&lt;/u&gt;&lt;i&gt;&amp;gt;&amp;gt;&lt;/i&gt;&lt;br&gt;&lt;b style=&quot;background-color: transparent; color: rgb(45, 55, 72); font-size: 10px;&quot;&gt;Alimento&lt;/b&gt;&lt;/p&gt;&lt;hr size=&quot;1&quot; style=&quot;border-style:solid;&quot;&gt;&lt;p style=&quot;margin:0px;margin-left:4px;&quot;&gt;&lt;span style=&quot;color: rgb(45, 55, 72); font-size: 10px; text-align: center;&quot;&gt;- id: long (PK)&lt;/span&gt;&lt;br style=&quot;color: rgb(45, 55, 72); font-size: 10px; text-align: center;&quot;&gt;&lt;span style=&quot;color: rgb(45, 55, 72); font-size: 10px; text-align: center;&quot;&gt;- nome: String&lt;/span&gt;&lt;br style=&quot;color: rgb(45, 55, 72); font-size: 10px; text-align: center;&quot;&gt;&lt;span style=&quot;color: rgb(45, 55, 72); font-size: 10px; text-align: center;&quot;&gt;- calorias: int&lt;/span&gt;&lt;br style=&quot;color: rgb(45, 55, 72); font-size: 10px; text-align: center;&quot;&gt;&lt;span style=&quot;color: rgb(45, 55, 72); font-size: 10px; text-align: center;&quot;&gt;- proteinas: double&lt;/span&gt;&lt;br style=&quot;color: rgb(45, 55, 72); font-size: 10px; text-align: center;&quot;&gt;&lt;span style=&quot;color: rgb(45, 55, 72); font-size: 10px; text-align: center;&quot;&gt;- carboidratos: double&lt;/span&gt;&lt;br style=&quot;color: rgb(45, 55, 72); font-size: 10px; text-align: center;&quot;&gt;&lt;span style=&quot;color: rgb(45, 55, 72); font-size: 10px; text-align: center;&quot;&gt;- gorduras: double&lt;/span&gt;&lt;br style=&quot;color: rgb(45, 55, 72); font-size: 10px; text-align: center;&quot;&gt;&lt;span style=&quot;color: rgb(45, 55, 72); font-size: 10px; text-align: center;&quot;&gt;- porcao: String&lt;/span&gt;&lt;br style=&quot;color: rgb(45, 55, 72); font-size: 10px; text-align: center;&quot;&gt;&lt;span style=&quot;color: rgb(45, 55, 72); font-size: 10px; text-align: center;&quot;&gt;- idUsuario: long (FK)&lt;/span&gt;&lt;br style=&quot;color: rgb(45, 55, 72); font-size: 10px; text-align: center;&quot;&gt;&lt;/p&gt;&lt;p style=&quot;margin: 0px 0px 0px 4px;&quot;&gt;&lt;span style=&quot;color: rgb(45, 55, 72); font-size: 10px; text-align: center; background-color: transparent;&quot;&gt;- ehPersonalizado: boolean&lt;/span&gt;+&lt;/p&gt;&lt;hr size=&quot;1&quot; style=&quot;border-style:solid;&quot;&gt;&lt;p style=&quot;margin:0px;margin-left:4px;&quot;&gt;&lt;i style=&quot;color: rgb(45, 55, 72); font-size: 10px; text-align: center;&quot;&gt;+ get/set...&lt;/i&gt;&lt;/p&gt;" style="verticalAlign=top;align=left;overflow=fill;html=1;whiteSpace=wrap;" vertex="1" parent="WIyWlLk6GJQsqaUBKTNV-1">
          <mxGeometry x="233" y="70" width="180" height="210" as="geometry" />
        </mxCell>
        <mxCell id="zGWfX58aozJK1iI6-qko-10" value="&lt;p style=&quot;margin:0px;margin-top:4px;text-align:center;&quot;&gt;&lt;i&gt;&amp;lt;&amp;lt;&lt;/i&gt;&lt;u style=&quot;color: rgb(45, 55, 72); font-size: 10px;&quot;&gt;Entity&lt;/u&gt;&lt;i&gt;&amp;gt;&amp;gt;&lt;/i&gt;&lt;br&gt;&lt;span style=&quot;background-color: transparent; font-size: 10px;&quot;&gt;&lt;font color=&quot;#2d3748&quot;&gt;&lt;b&gt;Usuario&lt;/b&gt;&lt;/font&gt;&lt;/span&gt;&lt;/p&gt;&lt;hr size=&quot;1&quot; style=&quot;border-style:solid;&quot;&gt;&lt;p style=&quot;margin:0px;margin-left:4px;&quot;&gt;&lt;span style=&quot;color: rgb(45, 55, 72); font-size: 10px; text-align: center;&quot;&gt;- id: long (PK)&lt;/span&gt;&lt;br style=&quot;color: rgb(45, 55, 72); font-size: 10px; text-align: center;&quot;&gt;&lt;span style=&quot;color: rgb(45, 55, 72); font-size: 10px; text-align: center;&quot;&gt;- nome: String&lt;/span&gt;&lt;br style=&quot;color: rgb(45, 55, 72); font-size: 10px; text-align: center;&quot;&gt;&lt;span style=&quot;color: rgb(45, 55, 72); font-size: 10px; text-align: center;&quot;&gt;- metaCalorias: int&lt;/span&gt;&lt;br style=&quot;color: rgb(45, 55, 72); font-size: 10px; text-align: center;&quot;&gt;&lt;span style=&quot;color: rgb(45, 55, 72); font-size: 10px; text-align: center;&quot;&gt;- metaProteinas: double&lt;/span&gt;&lt;br style=&quot;color: rgb(45, 55, 72); font-size: 10px; text-align: center;&quot;&gt;&lt;span style=&quot;color: rgb(45, 55, 72); font-size: 10px; text-align: center;&quot;&gt;- metaCarboidratos: double&lt;/span&gt;&lt;br style=&quot;color: rgb(45, 55, 72); font-size: 10px; text-align: center;&quot;&gt;&lt;span style=&quot;color: rgb(45, 55, 72); font-size: 10px; text-align: center;&quot;&gt;- metaGorduras: double&lt;/span&gt;&lt;br style=&quot;color: rgb(45, 55, 72); font-size: 10px; text-align: center;&quot;&gt;&lt;span style=&quot;color: rgb(45, 55, 72); font-size: 10px; text-align: center;&quot;&gt;- caloriasConsumidasDia: double&lt;/span&gt;&lt;br&gt;&lt;/p&gt;&lt;hr size=&quot;1&quot; style=&quot;border-style:solid;&quot;&gt;&lt;p style=&quot;margin:0px;margin-left:4px;&quot;&gt;&lt;i style=&quot;color: rgb(45, 55, 72); font-size: 10px; text-align: center;&quot;&gt;+ get/set...&lt;/i&gt;&lt;/p&gt;" style="verticalAlign=top;align=left;overflow=fill;html=1;whiteSpace=wrap;" vertex="1" parent="WIyWlLk6GJQsqaUBKTNV-1">
          <mxGeometry x="233" y="300" width="180" height="180" as="geometry" />
        </mxCell>
        <mxCell id="zGWfX58aozJK1iI6-qko-12" value="&lt;p style=&quot;margin:0px;margin-top:4px;text-align:center;&quot;&gt;&lt;i&gt;&amp;lt;&amp;lt;&lt;/i&gt;&lt;u style=&quot;color: rgb(45, 55, 72); font-size: 10px;&quot;&gt;Entity&lt;/u&gt;&lt;i&gt;&amp;gt;&amp;gt;&lt;/i&gt;&lt;br&gt;&lt;b style=&quot;color: rgb(45, 55, 72); font-size: 10px;&quot;&gt;AlimentoConsumido&lt;/b&gt;&lt;/p&gt;&lt;hr size=&quot;1&quot; style=&quot;border-style:solid;&quot;&gt;&lt;p&gt;- id: long (PK)&lt;/p&gt;&lt;p&gt;- usuarioId: long (FK)&lt;/p&gt;&lt;p&gt;- alimentoOriginalId: long (FK) &lt;/p&gt;&lt;p&gt;- nomeAlimento: String&lt;/p&gt;&lt;p&gt;- caloriasTotais: double&lt;/p&gt;&lt;p&gt;- proteinasTotais: double&lt;/p&gt;&lt;p&gt;- carboidratosTotais: double&lt;/p&gt;&lt;p&gt;- gordurasTotais: double&lt;/p&gt;&lt;p&gt;- gramasConsumidas: double&lt;/p&gt;&lt;p&gt;- tipoRefeicao: String&amp;nbsp;&lt;/p&gt;&lt;hr size=&quot;1&quot; style=&quot;border-style:solid;&quot;&gt;&lt;p style=&quot;margin:0px;margin-left:4px;&quot;&gt;&lt;i style=&quot;text-align: center; font-size: 10px; color: rgb(45, 55, 72);&quot;&gt;+ get/set...&lt;/i&gt;&lt;/p&gt;" style="verticalAlign=top;align=left;overflow=fill;html=1;whiteSpace=wrap;" vertex="1" parent="WIyWlLk6GJQsqaUBKTNV-1">
          <mxGeometry x="233" y="500" width="167" height="380" as="geometry" />
        </mxCell>
      </root>
    </mxGraphModel>
  </diagram>
</mxfile>
